<svg width="175" height="175" viewBox="0 0 175 175" fill="none" xmlns="http://www.w3.org/2000/svg">
<path d="M85.3309 154.933C85.4787 154.948 85.5949 155.008 85.6793 155.112C85.7637 155.215 85.7983 155.341 85.7832 155.489L84.4403 168.591C84.4251 168.739 84.3657 168.855 84.262 168.939C84.1583 169.024 84.0325 169.058 83.8847 169.043L82.0504 168.855C81.8489 168.834 81.7059 168.772 81.6214 168.669C81.537 168.565 81.4841 168.485 81.4627 168.428L76.9424 159.471L76.0953 167.736C76.0802 167.883 76.0207 167.999 75.917 168.084C75.8133 168.168 75.6943 168.204 75.5599 168.19L73.5039 167.979C73.3561 167.964 73.2399 167.905 73.1555 167.801C73.0711 167.697 73.0365 167.571 73.0516 167.424L74.3945 154.322C74.4083 154.187 74.4677 154.071 74.5728 153.973C74.6765 153.889 74.8023 153.854 74.9501 153.869L76.8045 154.059C77.0061 154.08 77.1491 154.142 77.2335 154.246C77.3031 154.362 77.356 154.442 77.3922 154.486L81.9193 163.179L82.7395 155.177C82.7546 155.029 82.8141 154.913 82.9178 154.829C83.0215 154.744 83.1472 154.709 83.2951 154.725L85.3309 154.933Z" fill="#E5DEDD"/>
<path d="M68.5705 152.338C68.7108 152.387 68.81 152.472 68.8681 152.592C68.9263 152.712 68.9309 152.843 68.8819 152.983L64.5439 165.419C64.495 165.559 64.4103 165.658 64.2899 165.716C64.1695 165.775 64.0391 165.779 63.8988 165.73L55.366 162.754C55.2257 162.705 55.1264 162.62 55.0683 162.5C55.0102 162.379 55.0056 162.249 55.0545 162.109L55.6218 160.482C55.6707 160.342 55.7554 160.243 55.8758 160.185C55.9963 160.127 56.1266 160.122 56.2669 160.171L62.2935 162.273L63.4214 159.04L57.7774 157.071C57.6371 157.022 57.5379 156.937 57.4798 156.817C57.4217 156.697 57.4171 156.566 57.466 156.426L58.0333 154.8C58.0778 154.672 58.1602 154.579 58.2807 154.521C58.4011 154.463 58.5314 154.459 58.6717 154.507L64.3157 156.476L65.8974 151.942C65.9463 151.802 66.031 151.702 66.1514 151.644C66.2718 151.586 66.4022 151.582 66.5425 151.631L68.5705 152.338Z" fill="#E5DEDD"/>
<path d="M52.2381 145.2C52.3642 145.278 52.4424 145.383 52.4727 145.513C52.5029 145.643 52.4788 145.771 52.4002 145.897L46.6583 155.116L49.7886 157.066C49.9032 157.137 49.9757 157.238 50.006 157.368C50.0363 157.499 50.0157 157.621 49.9443 157.736L48.9801 159.284C48.9016 159.41 48.7972 159.488 48.6669 159.518C48.5367 159.548 48.4142 159.528 48.2995 159.456L39.2872 153.843C39.161 153.765 39.0828 153.66 39.0526 153.53C39.0223 153.4 39.0464 153.271 39.125 153.145L40.0891 151.597C40.1605 151.483 40.2614 151.41 40.3916 151.38C40.5219 151.35 40.6501 151.374 40.7762 151.452L43.8893 153.391L49.6312 144.173C49.7097 144.047 49.8141 143.968 49.9444 143.938C50.0746 143.908 50.2028 143.932 50.329 144.01L52.2381 145.2Z" fill="#E5DEDD"/>
<path d="M37.101 133.355C37.1833 133.462 37.2199 133.587 37.2108 133.73C37.1935 133.863 37.126 133.975 37.0082 134.065L26.5668 142.093C26.449 142.183 26.3238 142.22 26.1912 142.203C26.0504 142.175 25.9388 142.107 25.8565 142L24.7079 140.506C24.5844 140.345 24.5367 140.195 24.5647 140.054C24.5845 139.902 24.6035 139.794 24.6216 139.729L27.7947 132.587L20.052 133.785C19.9927 133.797 19.8914 133.798 19.7481 133.789C19.5965 133.769 19.459 133.679 19.3355 133.518L18.1869 132.025C18.0963 131.907 18.0597 131.782 18.077 131.649C18.0944 131.516 18.1619 131.405 18.2797 131.314L28.7211 123.286C28.8389 123.196 28.9641 123.159 29.0967 123.177C29.2293 123.194 29.3408 123.261 29.4314 123.379L30.6911 125.018C30.7735 125.125 30.806 125.245 30.7887 125.377C30.7713 125.51 30.7038 125.621 30.586 125.712L24.0963 130.702L29.4879 129.802C29.6255 129.782 29.7646 129.785 29.9055 129.813C30.0463 129.842 30.1702 129.925 30.2773 130.064L30.8577 130.819C30.9648 130.959 31.0138 131.1 31.0047 131.243C30.9956 131.386 30.9634 131.522 30.9082 131.65L28.6536 136.629L35.1432 131.64C35.261 131.549 35.3862 131.512 35.5188 131.53C35.6514 131.547 35.7589 131.609 35.8412 131.716L37.101 133.355Z" fill="#E5DEDD"/>
<path d="M24.4023 112.621C24.8539 113.72 25.068 114.757 25.0444 115.731C25.0082 116.709 24.7015 117.58 24.124 118.343C23.5341 119.111 22.6456 119.739 21.4586 120.226L13.8115 123.368C13.674 123.424 13.5436 123.427 13.4202 123.375C13.2968 123.323 13.2069 123.229 13.1504 123.091L12.3112 121.049C12.2548 120.911 12.2523 120.781 12.3038 120.657C12.3554 120.534 12.4499 120.444 12.5873 120.387L20.2157 117.254C21.1403 116.874 21.7378 116.373 22.008 115.751C22.2781 115.129 22.2516 114.424 21.9282 113.637C21.61 112.862 21.1361 112.349 20.5067 112.096C19.8772 111.844 19.1001 111.907 18.1755 112.287L10.5471 115.421C10.4097 115.477 10.2792 115.48 10.1558 115.428C10.0273 115.364 9.93739 115.269 9.88607 115.144L9.03919 113.083C8.98786 112.958 8.98797 112.834 9.03951 112.71C9.09104 112.587 9.18554 112.497 9.32299 112.44L16.9701 109.299C18.1571 108.812 19.2304 108.634 20.1899 108.765C21.1369 108.902 21.9646 109.3 22.6731 109.958C23.3691 110.621 23.9455 111.509 24.4023 112.621Z" fill="#E5DEDD"/>
<path d="M20.084 97.0334C20.2755 98.316 20.249 99.4194 20.0046 100.344C19.7581 101.255 19.3672 101.975 18.8318 102.506C18.2965 103.037 17.6901 103.366 17.0127 103.495C16.9058 103.511 16.8063 103.485 16.7142 103.416C16.6087 103.35 16.547 103.257 16.529 103.137L16.2089 100.992C16.1829 100.819 16.2031 100.679 16.2693 100.574C16.3221 100.47 16.396 100.37 16.4909 100.274C16.704 100.147 16.9026 99.9668 17.0864 99.7345C17.2682 99.4888 17.4057 99.1747 17.4988 98.792C17.5786 98.4113 17.5786 97.9538 17.4988 97.4194C17.3691 96.551 17.1321 95.9239 16.7877 95.5383C16.4413 95.1393 16.0276 94.9757 15.5467 95.0475C15.1993 95.0994 14.9367 95.2615 14.7588 95.5339C14.579 95.7929 14.4401 96.1893 14.3422 96.7229C14.2423 97.2431 14.154 97.9324 14.0773 98.7907C14.0131 99.8246 13.8669 100.721 13.6386 101.479C13.395 102.225 13.0329 102.819 12.5523 103.259C12.0564 103.688 11.4076 103.963 10.606 104.082C9.8044 104.202 9.0634 104.087 8.383 103.738C7.68924 103.391 7.10884 102.843 6.64179 102.093C6.16138 101.345 5.8384 100.417 5.67284 99.3079C5.5392 98.4128 5.54175 97.6066 5.68051 96.8893C5.81727 96.1586 6.04546 95.5373 6.36509 95.0252C6.68272 94.4997 7.04403 94.0838 7.44902 93.7775C7.854 93.4712 8.26258 93.2805 8.67476 93.2053C8.78164 93.1893 8.88782 93.2144 8.99331 93.2806C9.08544 93.3488 9.14048 93.4431 9.15844 93.5633L9.49354 95.8078C9.51349 95.9414 9.50472 96.0657 9.46724 96.1805C9.42976 96.2954 9.3492 96.3962 9.22557 96.4829C8.89017 96.615 8.62547 96.9003 8.43146 97.339C8.22211 97.7664 8.1643 98.294 8.25805 98.9219C8.35579 99.5766 8.55383 100.08 8.85216 100.431C9.14849 100.769 9.54383 100.902 10.0382 100.828C10.3588 100.78 10.6187 100.646 10.8179 100.425C11.0018 100.192 11.1466 99.836 11.2525 99.3558C11.343 98.8643 11.4316 98.2228 11.5183 97.4313C11.5833 96.2197 11.7279 95.2216 11.9522 94.4369C12.1765 93.6522 12.5299 93.0463 13.0125 92.6191C13.4816 92.194 14.1171 91.9215 14.9187 91.8019C15.8138 91.6682 16.6199 91.8074 17.337 92.2193C18.0521 92.6179 18.6492 93.2321 19.1282 94.0621C19.5918 94.8806 19.9104 95.8711 20.084 97.0334Z" fill="#E5DEDD"/>
<path d="M19.1138 85.7596C19.1083 85.9081 19.0566 86.0278 18.9586 86.1188C18.8606 86.2098 18.7373 86.2526 18.5888 86.2471L5.4272 85.7602C5.27871 85.7547 5.15897 85.7029 5.06797 85.6049C4.97697 85.5069 4.93422 85.3837 4.93971 85.2352L5.02437 82.9471C5.02986 82.7986 5.0816 82.6789 5.17959 82.5879C5.27758 82.4969 5.40082 82.4541 5.54931 82.4596L18.711 82.9466C18.8594 82.9521 18.9792 83.0038 19.0702 83.1018C19.1612 83.1998 19.2039 83.323 19.1984 83.4715L19.1138 85.7596Z" fill="#E5DEDD"/>
<path d="M21.0655 71.6331C20.7807 72.8706 20.3343 73.8768 19.7263 74.6517C19.1081 75.4104 18.3496 75.9359 17.4506 76.228C16.5386 76.5171 15.5038 76.5562 14.3464 76.3453C13.8036 76.2343 13.2229 76.1076 12.6042 75.9652C11.9855 75.8228 11.3946 75.6799 10.8316 75.5364C9.71155 75.2232 8.81114 74.7388 8.13035 74.0831C7.43942 73.4113 6.9833 72.5924 6.76199 71.6266C6.54068 70.6609 6.56938 69.5724 6.84809 68.3613C7.05107 67.4793 7.34776 66.702 7.73818 66.0295C8.12859 65.3569 8.59501 64.8059 9.13745 64.3762C9.67988 63.9466 10.2675 63.6521 10.9002 63.4928C11.5329 63.3334 12.2011 63.3209 12.9049 63.4551C13.0234 63.4824 13.1115 63.5512 13.1693 63.6615C13.2301 63.7587 13.2469 63.8665 13.2196 63.985L12.7015 66.2361C12.6652 66.394 12.5969 66.51 12.4967 66.584C12.3965 66.6579 12.2482 66.7 12.0518 66.7103C11.2297 66.729 10.6208 66.9354 10.2251 67.3295C9.8295 67.7236 9.55291 68.263 9.39538 68.9475C9.20755 69.7637 9.2829 70.4602 9.62142 71.0371C9.95994 71.6141 10.6447 72.0419 11.6755 72.3208C12.7459 72.6087 13.8517 72.8631 14.9929 73.0842C16.042 73.284 16.8449 73.1985 17.4015 72.8276C17.9581 72.4567 18.3304 71.8631 18.5182 71.0469C18.6757 70.3624 18.6627 69.7564 18.4791 69.229C18.2854 68.6854 17.828 68.2336 17.1069 67.8736C16.9215 67.7755 16.8066 67.6728 16.7619 67.5655C16.7042 67.4552 16.6935 67.321 16.7298 67.1631L17.2479 64.912C17.2751 64.7935 17.3373 64.7039 17.4345 64.6431C17.5347 64.5691 17.644 64.5457 17.7625 64.573C18.4541 64.7599 19.0497 65.0633 19.5491 65.4831C20.0485 65.903 20.4483 66.4247 20.7483 67.0482C21.0484 67.6718 21.227 68.3713 21.2842 69.1468C21.3414 69.9224 21.2685 70.7511 21.0655 71.6331Z" fill="#E5DEDD"/>
<path d="M33.7523 45.1311C33.2807 45.7226 32.7605 46.2234 32.1916 46.6337C31.6227 47.0439 31.0261 47.3371 30.402 47.5133C29.7673 47.681 29.1312 47.7095 28.4939 47.5988C27.8651 47.4775 27.2464 47.1916 26.6381 46.7412C26.543 46.6654 26.4891 46.5705 26.4762 46.4566C26.4528 46.3343 26.4832 46.2203 26.5674 46.1147L28.0074 44.3085C28.1168 44.1712 28.238 44.0951 28.3709 44.0801C28.5122 44.0545 28.6684 44.0753 28.8394 44.1426C29.2195 44.3592 29.5825 44.4673 29.9285 44.4667C30.2745 44.4661 30.6013 44.3811 30.909 44.2119C31.2146 44.0236 31.4979 43.7657 31.759 43.4383C32.239 42.8362 32.4099 42.221 32.2717 41.5925C32.1419 40.9535 31.7179 40.3477 30.9996 39.7751L26.1515 35.91L21.9453 41.1859C21.8611 41.2916 21.7525 41.3519 21.6197 41.3669C21.4868 41.3819 21.3675 41.3472 21.2619 41.263L19.931 40.202C19.8148 40.1094 19.7492 39.9966 19.7342 39.8638C19.7193 39.7309 19.7539 39.6116 19.8381 39.506L25.7873 32.0436C25.88 31.9274 25.9927 31.8618 26.1256 31.8468C26.2585 31.8318 26.383 31.8706 26.4992 31.9633L33.1219 37.2431C34.0303 37.9673 34.6498 38.7721 34.9804 39.6576C35.3004 40.5347 35.3547 41.4417 35.1432 42.3788C34.9317 43.3158 34.4681 44.2333 33.7523 45.1311Z" fill="#E5DEDD"/>
<path d="M40.3033 37.1976C40.207 37.2717 40.102 37.3014 39.9883 37.2867C39.8664 37.2612 39.7725 37.2057 39.7065 37.12C39.6653 37.0665 39.6336 37.0142 39.6113 36.9632L35.4833 23.698C35.4247 23.5555 35.4106 23.4044 35.441 23.2446C35.4714 23.0848 35.5722 22.939 35.7435 22.8071L37.7984 21.2247C37.9697 21.0929 38.1364 21.0327 38.2987 21.0441C38.4609 21.0556 38.6035 21.1078 38.7262 21.2008L50.4962 28.5815C50.5398 28.6161 50.5823 28.6601 50.6235 28.7136C50.6894 28.7992 50.7191 28.9042 50.7126 29.0286C50.6978 29.1423 50.6423 29.2362 50.546 29.3104L48.8763 30.5961C48.7158 30.7197 48.5692 30.7729 48.4366 30.7557C48.304 30.7384 48.2022 30.7059 48.1314 30.6582L46.0564 29.3917L41.5291 32.8779L42.2234 35.2076C42.2514 35.2883 42.2568 35.3949 42.2396 35.5275C42.2224 35.6601 42.1335 35.7883 41.9729 35.9119L40.3033 37.1976ZM40.5284 30.3495L43.8516 27.7905L38.6377 24.4401L40.5284 30.3495Z" fill="#E5DEDD"/>
<path d="M55.2702 26.6984C55.1339 26.7577 55.0036 26.7629 54.8792 26.7139C54.7547 26.665 54.6628 26.5724 54.6035 26.4361L49.346 14.3604C49.2867 14.2241 49.2815 14.0938 49.3304 13.9694C49.3794 13.8449 49.472 13.753 49.6082 13.6937L54.5314 11.5503C56.0796 10.8762 57.456 10.7042 58.6605 11.0344C59.8596 11.3521 60.7503 12.1797 61.3327 13.5174C61.7263 14.4215 61.8385 15.2714 61.6692 16.067C61.5 16.8626 61.1147 17.5681 60.5134 18.1835L65.155 21.6876C65.2245 21.7457 65.2727 21.8057 65.2997 21.8677C65.3428 21.9667 65.3461 22.0758 65.3096 22.1949C65.2676 22.3015 65.1909 22.3791 65.0794 22.4277L63.0173 23.3255C62.7943 23.4225 62.6029 23.4396 62.4429 23.3767C62.2775 23.3013 62.1484 23.2249 62.0557 23.1474L57.9369 19.8798L55.689 20.8585L57.5574 25.1501C57.6168 25.2863 57.6219 25.4167 57.573 25.5411C57.524 25.6655 57.4314 25.7574 57.2952 25.8167L55.2702 26.6984ZM54.6618 18.4991L57.0398 17.4638C57.721 17.1672 58.1552 16.794 58.3424 16.3442C58.542 15.8889 58.5204 15.3826 58.2778 14.8253C58.0351 14.268 57.6827 13.8984 57.2205 13.7166C56.7582 13.5347 56.1803 13.5948 55.4868 13.8968L53.1088 14.9321L54.6618 18.4991Z" fill="#E5DEDD"/>
<path d="M74.126 20.2606C73.9129 20.297 73.7307 20.2733 73.5794 20.1895C73.4391 20.0901 73.3287 19.9651 73.2481 19.8144L66.8681 7.72735C66.8434 7.66304 66.8265 7.60426 66.8174 7.551C66.7992 7.44447 66.8232 7.34444 66.8895 7.25091C66.9535 7.14406 67.0454 7.08041 67.1652 7.05995L69.2625 6.70193C69.4622 6.66783 69.6256 6.70161 69.7525 6.80326C69.8906 6.88933 69.9809 6.9767 70.0234 7.06536L74.8066 16.3005L76.2352 6.00493C76.2592 5.90491 76.3154 5.79254 76.4037 5.66782C76.4898 5.5298 76.6327 5.44374 76.8324 5.40964L78.9297 5.05162C79.0495 5.03116 79.1573 5.06071 79.2531 5.14029C79.3467 5.20654 79.4025 5.29293 79.4207 5.39946C79.4298 5.45272 79.4334 5.51378 79.4314 5.58263L77.4226 19.1017C77.41 19.2683 77.3473 19.4229 77.2346 19.5655C77.1329 19.6925 76.9689 19.7753 76.7425 19.8139L74.126 20.2606Z" fill="#E5DEDD"/>
<path d="M86.9601 19.0365C86.8115 19.0335 86.6909 18.9838 86.5983 18.8874C86.5056 18.7909 86.4608 18.6684 86.4638 18.5199L86.7289 5.3519C86.7319 5.20333 86.7816 5.08273 86.8781 4.9901C86.9745 4.89746 87.097 4.85264 87.2456 4.85563L89.5348 4.90171C89.6833 4.90471 89.8039 4.95442 89.8966 5.05087C89.9892 5.14731 90.034 5.26981 90.031 5.41837L89.7659 18.5863C89.7629 18.7349 89.7132 18.8555 89.6168 18.9481C89.5203 19.0408 89.3978 19.0856 89.2493 19.0826L86.9601 19.0365Z" fill="#E5DEDD"/>
<path d="M100.611 20.6436C99.3414 20.3792 98.3154 19.9724 97.5329 19.4231C96.7637 18.8765 96.2228 18.2602 95.9103 17.5742C95.5978 16.8883 95.4986 16.2053 95.6126 15.5253C95.6346 15.4195 95.6936 15.3352 95.7894 15.2724C95.8881 15.1963 95.9969 15.1707 96.1159 15.1955L98.2385 15.6375C98.4104 15.6733 98.5344 15.7405 98.6104 15.8392C98.6892 15.9246 98.7573 16.0284 98.8146 16.1507C98.8603 16.3948 98.9604 16.6433 99.1147 16.8962C99.2822 17.1519 99.5294 17.3896 99.8561 17.6095C100.186 17.8161 100.615 17.9745 101.144 18.0846C102.004 18.2636 102.674 18.2583 103.155 18.0687C103.649 17.8819 103.946 17.5505 104.045 17.0744C104.117 16.7305 104.055 16.428 103.861 16.1669C103.681 15.9084 103.357 15.6409 102.89 15.3644C102.437 15.0906 101.821 14.7691 101.042 14.4C100.094 13.9818 99.3042 13.5345 98.6722 13.0579C98.0561 12.5708 97.6246 12.0256 97.3777 11.4223C97.1468 10.8085 97.1139 10.1048 97.2792 9.31136C97.4444 8.51788 97.8086 7.86242 98.3717 7.34497C98.9375 6.81429 99.653 6.45965 100.518 6.28105C101.386 6.08923 102.369 6.10761 103.466 6.33619C104.352 6.52071 105.108 6.80222 105.733 7.18071C106.371 7.56197 106.875 7.99117 107.245 8.46832C107.628 8.94822 107.893 9.43117 108.04 9.91715C108.187 10.4031 108.224 10.8525 108.152 11.2652C108.13 11.371 108.07 11.4619 107.971 11.538C107.875 11.6008 107.768 11.6198 107.649 11.595L105.427 11.1324C105.295 11.1048 105.181 11.0536 105.087 10.9787C104.992 10.9037 104.925 10.7932 104.887 10.6472C104.879 10.2869 104.703 9.93974 104.358 9.60585C104.03 9.26149 103.555 9.02459 102.933 8.89516C102.285 8.76021 101.745 8.77183 101.312 8.93C100.892 9.09093 100.631 9.41605 100.529 9.90537C100.463 10.2228 100.499 10.5131 100.637 10.7765C100.792 11.0294 101.076 11.2887 101.49 11.5542C101.919 11.8093 102.491 12.1145 103.203 12.4699C104.317 12.9503 105.204 13.4315 105.862 13.9136C106.521 14.3957 106.967 14.937 107.2 15.5376C107.437 16.125 107.473 16.8154 107.307 17.6089C107.123 18.4949 106.713 19.203 106.078 19.7331C105.457 20.266 104.674 20.6135 103.729 20.7756C102.801 20.9272 101.762 20.8832 100.611 20.6436Z" fill="#E5DEDD"/>
<path d="M124.184 29.8059C124.079 29.7217 124.013 29.609 123.987 29.4678C123.972 29.3349 124.011 29.2103 124.103 29.0941L132.306 18.7895C132.398 18.6732 132.511 18.6076 132.644 18.5925C132.787 18.5858 132.912 18.6245 133.018 18.7086L134.492 19.8822C134.651 20.0084 134.733 20.1432 134.74 20.2867C134.757 20.4385 134.765 20.5482 134.763 20.6157L133.402 28.3119L140.629 25.2849C140.683 25.2594 140.781 25.2339 140.923 25.2082C141.074 25.191 141.23 25.2454 141.388 25.3716L142.863 26.5452C142.979 26.6378 143.044 26.7505 143.06 26.8833C143.075 27.0162 143.036 27.1408 142.943 27.257L134.741 37.5616C134.648 37.6779 134.536 37.7435 134.403 37.7586C134.27 37.7737 134.145 37.735 134.029 37.6425L132.412 36.3553C132.306 36.2712 132.246 36.1627 132.231 36.0298C132.216 35.8969 132.254 35.7723 132.347 35.6561L137.445 29.2514L132.428 31.4218C132.3 31.4749 132.164 31.5047 132.02 31.5114C131.877 31.5181 131.737 31.4667 131.599 31.3574L130.854 30.7643C130.717 30.6549 130.635 30.5296 130.61 30.3883C130.584 30.247 130.582 30.1078 130.605 29.9706L131.595 24.5949L126.497 30.9996C126.405 31.1158 126.292 31.1815 126.159 31.1966C126.026 31.2117 125.907 31.1772 125.801 31.093L124.184 29.8059Z" fill="#E5DEDD"/>
<path d="M137.744 41.4118C137.673 41.3137 137.645 41.2081 137.663 41.0948C137.691 40.9735 137.749 40.8809 137.836 40.817C137.89 40.7771 137.943 40.7466 137.995 40.7255L151.353 36.909C151.497 36.8538 151.648 36.8433 151.807 36.8774C151.966 36.9115 152.11 37.0157 152.238 37.19L153.771 39.2814C153.899 39.4557 153.956 39.6238 153.94 39.7858C153.925 39.9477 153.87 40.089 153.774 40.2095L146.12 51.8035C146.084 51.8464 146.039 51.8878 145.984 51.9277C145.897 51.9916 145.792 52.0189 145.668 52.0094C145.554 51.992 145.462 51.9343 145.39 51.8362L144.143 50.1369C144.024 49.9736 143.974 49.8258 143.994 49.6936C144.015 49.5614 144.049 49.4605 144.099 49.3908L145.413 47.346L142.034 42.7384L139.689 43.3779C139.608 43.4041 139.501 43.407 139.369 43.3866C139.237 43.3663 139.111 43.2744 138.991 43.1111L137.744 41.4118ZM144.585 41.7971L147.066 45.1793L150.537 40.0452L144.585 41.7971Z" fill="#E5DEDD"/>
<path d="M147.89 56.6203C147.834 56.4827 147.832 56.3523 147.884 56.229C147.936 56.1058 148.03 56.0161 148.168 55.96L160.364 50.9865C160.501 50.9304 160.632 50.9283 160.755 50.9801C160.878 51.032 160.968 51.1267 161.024 51.2643L163.052 56.2363C163.689 57.7998 163.829 59.1798 163.471 60.3763C163.125 61.5676 162.277 62.4388 160.926 62.9897C160.013 63.362 159.16 63.4543 158.369 63.2665C157.578 63.0786 156.881 62.6769 156.28 62.0614L152.668 66.6197C152.609 66.6878 152.548 66.7347 152.485 66.7602C152.385 66.801 152.276 66.8017 152.158 66.7624C152.052 66.7179 151.976 66.6394 151.93 66.5268L151.081 64.4442C150.989 64.2191 150.977 64.0273 151.043 63.8688C151.122 63.7052 151.202 63.578 151.281 63.4871L154.645 59.4459L153.719 57.1757L149.385 58.9432C149.247 58.9993 149.117 59.0014 148.993 58.9496C148.87 58.8977 148.78 58.803 148.724 58.6654L147.89 56.6203ZM156.102 56.204L157.081 58.6055C157.362 59.2935 157.724 59.7363 158.17 59.934C158.62 60.1442 159.127 60.1345 159.69 59.905C160.253 59.6754 160.63 59.3317 160.823 58.8739C161.016 58.4161 160.969 57.8369 160.683 57.1365L159.704 54.7349L156.102 56.204Z" fill="#E5DEDD"/>
<path d="M153.346 72.0839C153.324 71.9369 153.352 71.8097 153.432 71.7021C153.511 71.5945 153.624 71.5296 153.771 71.5074L166.795 69.5431C166.942 69.521 167.069 69.5496 167.176 69.629C167.284 69.7084 167.349 69.8215 167.371 69.9685L167.691 72.0923C167.714 72.2392 167.685 72.3665 167.606 72.4741C167.526 72.5817 167.413 72.6466 167.266 72.6687L162.698 73.3577L168.009 76.778C168.097 76.8193 168.19 76.8941 168.288 77.0022C168.402 77.1217 168.475 77.2882 168.507 77.502L168.873 79.9263C168.891 80.0465 168.859 80.1538 168.778 80.248C168.71 80.3402 168.623 80.3944 168.516 80.4105C168.422 80.4246 168.338 80.41 168.263 80.3666L161.436 76.1301L155.618 82.6633C155.572 82.7248 155.496 82.7636 155.389 82.7797C155.283 82.7958 155.176 82.7708 155.071 82.7048C154.979 82.6367 154.923 82.5426 154.905 82.4224L154.528 79.9179C154.491 79.6775 154.517 79.4891 154.606 79.3528C154.695 79.2164 154.756 79.1252 154.79 79.0791L159.252 73.8775L154.243 74.633C154.096 74.6552 153.968 74.6266 153.861 74.5472C153.753 74.4678 153.688 74.3546 153.666 74.2077L153.346 72.0839Z" fill="#E5DEDD"/>
<path d="M154.953 87.8516C154.965 87.7035 155.022 87.5861 155.124 87.4993C155.226 87.4126 155.351 87.3752 155.499 87.387L168.627 88.4365C168.776 88.4483 168.893 88.5051 168.98 88.6069C169.066 88.7087 169.104 88.8337 169.092 88.9818L168.361 98.1315C168.349 98.2797 168.292 98.3971 168.19 98.4838C168.088 98.5705 167.963 98.608 167.815 98.5961L166.199 98.467C166.065 98.4562 165.954 98.3999 165.867 98.2981C165.781 98.1963 165.743 98.0714 165.755 97.9233L166.278 91.3791L163.107 91.1256L162.619 97.2254C162.608 97.3735 162.551 97.491 162.449 97.5777C162.347 97.6644 162.222 97.7018 162.074 97.69L160.579 97.5705C160.445 97.5598 160.334 97.5035 160.247 97.4017C160.161 97.2999 160.123 97.1749 160.135 97.0268L160.623 90.927L157.351 90.6654L156.815 97.3712C156.803 97.5193 156.746 97.6368 156.644 97.7235C156.542 97.8102 156.417 97.8476 156.269 97.8358L154.674 97.7082C154.525 97.6964 154.408 97.6396 154.321 97.5378C154.235 97.436 154.197 97.3111 154.209 97.1629L154.953 87.8516Z" fill="#E5DEDD"/>
<path d="M152.082 106.001C152.126 105.86 152.208 105.758 152.327 105.696C152.445 105.634 152.575 105.626 152.717 105.67L163.076 108.934L164.184 105.417C164.225 105.288 164.304 105.193 164.423 105.131C164.541 105.069 164.665 105.058 164.794 105.099L166.533 105.647C166.675 105.692 166.777 105.773 166.839 105.892C166.9 106.01 166.911 106.134 166.87 106.263L163.68 116.39C163.635 116.532 163.554 116.633 163.435 116.695C163.316 116.757 163.186 116.765 163.045 116.721L161.305 116.173C161.176 116.132 161.081 116.053 161.019 115.934C160.957 115.815 160.949 115.685 160.994 115.544L162.096 112.046L151.737 108.782C151.595 108.737 151.493 108.656 151.432 108.537C151.37 108.418 151.361 108.288 151.406 108.147L152.082 106.001Z" fill="#E5DEDD"/>
<path d="M147.784 117.388C147.86 117.26 147.963 117.18 148.093 117.148C148.223 117.115 148.351 117.137 148.479 117.213L159.784 123.97C159.912 124.046 159.992 124.149 160.024 124.279C160.057 124.408 160.035 124.537 159.959 124.665L157.121 129.413C156.56 130.352 155.93 131.077 155.231 131.588C154.525 132.11 153.762 132.386 152.942 132.415C152.127 132.463 151.285 132.227 150.415 131.707C149.534 131.181 148.921 130.547 148.577 129.806C148.237 129.084 148.136 128.292 148.274 127.43C148.404 126.579 148.75 125.685 149.312 124.745L150.705 122.415L146.774 120.065C146.646 119.989 146.566 119.886 146.534 119.757C146.501 119.627 146.523 119.498 146.599 119.371L147.784 117.388ZM152.893 123.652L151.52 125.947C151.167 126.539 151.038 127.083 151.134 127.581C151.223 128.091 151.557 128.519 152.137 128.865C152.647 129.17 153.155 129.269 153.66 129.162C154.158 129.066 154.604 128.687 154.999 128.027L156.371 125.731L152.893 123.652Z" fill="#E5DEDD"/>
<path d="M138.668 131.03C138.771 130.923 138.89 130.868 139.023 130.866C139.157 130.864 139.277 130.914 139.384 131.018L148.856 140.169C148.963 140.272 149.018 140.391 149.02 140.524C149.022 140.658 148.972 140.778 148.869 140.885L147.306 142.503C147.203 142.609 147.084 142.664 146.951 142.666C146.817 142.669 146.697 142.618 146.59 142.515L138.706 134.898L134.342 139.416C134.238 139.523 134.12 139.577 133.986 139.579C133.852 139.582 133.732 139.531 133.625 139.428L132.401 138.245C132.294 138.142 132.24 138.024 132.237 137.89C132.235 137.756 132.286 137.636 132.389 137.529L138.668 131.03Z" fill="#E5DEDD"/>
<path d="M129.129 140.468C129.231 140.402 129.338 140.382 129.45 140.406C129.569 140.442 129.658 140.506 129.716 140.597C129.753 140.654 129.78 140.709 129.798 140.762L132.756 154.335C132.802 154.482 132.803 154.634 132.759 154.791C132.715 154.947 132.602 155.084 132.42 155.2L130.235 156.598C130.053 156.714 129.882 156.76 129.721 156.734C129.56 156.709 129.423 156.644 129.309 156.541L118.225 148.165C118.185 148.127 118.146 148.079 118.11 148.022C118.051 147.931 118.031 147.824 118.048 147.701C118.073 147.589 118.136 147.5 118.239 147.434L120.014 146.299C120.185 146.19 120.335 146.149 120.466 146.178C120.597 146.207 120.695 146.248 120.761 146.302L122.718 147.744L127.532 144.665L127.043 142.283C127.022 142.201 127.026 142.094 127.054 141.963C127.083 141.833 127.183 141.713 127.353 141.603L129.129 140.468ZM128.309 147.27L124.776 149.531L129.678 153.322L128.309 147.27Z" fill="#E5DEDD"/>
<path d="M108.381 151.063C109.585 150.66 110.676 150.515 111.654 150.628C112.624 150.759 113.469 151.131 114.187 151.745C114.91 152.372 115.484 153.233 115.909 154.331C116.098 154.851 116.294 155.413 116.495 156.015C116.697 156.617 116.884 157.195 117.056 157.75C117.374 158.869 117.432 159.89 117.228 160.813C117.016 161.753 116.556 162.569 115.849 163.263C115.141 163.956 114.198 164.5 113.019 164.895C112.161 165.183 111.344 165.336 110.566 165.355C109.789 165.373 109.075 165.264 108.425 165.025C107.776 164.787 107.218 164.44 106.751 163.984C106.285 163.528 105.925 162.965 105.672 162.294C105.633 162.179 105.646 162.068 105.709 161.961C105.76 161.859 105.844 161.788 105.959 161.749L108.149 161.015C108.303 160.963 108.437 160.961 108.553 161.008C108.668 161.054 108.781 161.159 108.893 161.321C109.338 162.012 109.832 162.424 110.375 162.555C110.918 162.686 111.522 162.641 112.188 162.417C112.982 162.151 113.537 161.723 113.852 161.133C114.167 160.543 114.174 159.735 113.873 158.711C113.559 157.647 113.199 156.572 112.791 155.483C112.413 154.484 111.921 153.844 111.314 153.563C110.707 153.283 110.006 153.275 109.212 153.542C108.546 153.765 108.036 154.093 107.682 154.525C107.32 154.974 107.174 155.6 107.244 156.403C107.257 156.612 107.229 156.764 107.161 156.858C107.097 156.965 106.988 157.044 106.835 157.096L104.645 157.83C104.529 157.869 104.42 157.863 104.318 157.812C104.202 157.765 104.125 157.684 104.087 157.568C103.885 156.881 103.832 156.215 103.929 155.57C104.026 154.924 104.262 154.311 104.637 153.729C105.012 153.148 105.515 152.63 106.147 152.176C106.778 151.722 107.523 151.351 108.381 151.063Z" fill="#E5DEDD"/>
<path d="M97.5164 154.068C97.6644 154.055 97.7897 154.091 97.8924 154.177C97.9951 154.263 98.0531 154.379 98.0665 154.527L99.2511 167.645C99.2644 167.793 99.2283 167.918 99.1426 168.021C99.0569 168.123 98.9401 168.181 98.7921 168.195L89.6504 169.02C89.5024 169.034 89.3771 168.998 89.2744 168.912C89.1717 168.826 89.1137 168.709 89.1003 168.561L88.9545 166.947C88.9424 166.812 88.9791 166.694 89.0648 166.591C89.1505 166.488 89.2673 166.43 89.4153 166.417L95.9537 165.827L95.6676 162.658L89.5731 163.209C89.4251 163.222 89.2998 163.186 89.1971 163.1C89.0945 163.014 89.0364 162.898 89.0231 162.75L88.8882 161.256C88.8761 161.122 88.9128 161.003 88.9985 160.9C89.0842 160.798 89.201 160.74 89.349 160.726L95.4435 160.176L95.1482 156.907L88.4483 157.512C88.3003 157.525 88.175 157.489 88.0723 157.403C87.9696 157.318 87.9116 157.201 87.8983 157.053L87.7543 155.459C87.7409 155.311 87.7771 155.185 87.8627 155.083C87.9484 154.98 88.0652 154.922 88.2132 154.909L97.5164 154.068Z" fill="#E5DEDD"/>
</svg>
